<svg width="23" height="24" viewBox="0 0 23 24" fill="none" xmlns="http://www.w3.org/2000/svg">
<path d="M16.5391 2.29688H6.34375C5.56812 2.29688 4.9375 2.92749 4.9375 3.70312V20.5781C4.9375 21.3538 5.56812 21.9844 6.34375 21.9844H16.5391C17.3147 21.9844 17.9453 21.3538 17.9453 20.5781V3.70312C17.9453 2.92749 17.3147 2.29688 16.5391 2.29688ZM16.3633 20.4023H6.51953V3.87891H16.3633V20.4023ZM10.5625 18.1611C10.5625 18.3942 10.6551 18.6178 10.8199 18.7826C10.9848 18.9474 11.2083 19.04 11.4414 19.04C11.6745 19.04 11.8981 18.9474 12.0629 18.7826C12.2277 18.6178 12.3203 18.3942 12.3203 18.1611C12.3203 17.928 12.2277 17.7045 12.0629 17.5397C11.8981 17.3748 11.6745 17.2822 11.4414 17.2822C11.2083 17.2822 10.9848 17.3748 10.8199 17.5397C10.6551 17.7045 10.5625 17.928 10.5625 18.1611Z" fill="white"/>
</svg>
