<svg width="17" height="18" viewBox="0 0 17 18" fill="none" xmlns="http://www.w3.org/2000/svg">
<g clip-path="url(#clip0_47_461)">
<path d="M8.4375 0.9375C6.14777 0.9375 5.85984 0.948047 4.9602 0.988125C4.06055 1.03031 3.44777 1.17164 2.91094 1.38047C2.34783 1.59227 1.83778 1.9245 1.41645 2.35395C0.987268 2.7755 0.655074 3.28549 0.442969 3.84844C0.234141 4.38422 0.0917578 4.99805 0.050625 5.89453C0.0105469 6.79629 0 7.08316 0 9.37606C0 11.6668 0.0105469 11.9537 0.050625 12.8534C0.0928125 13.752 0.234141 14.3647 0.442969 14.9016C0.65918 15.4563 0.947109 15.9267 1.41645 16.3961C1.88473 16.8654 2.35512 17.1544 2.90988 17.3695C3.44777 17.5784 4.05949 17.7207 4.95809 17.7619C5.85879 17.802 6.14566 17.8125 8.4375 17.8125C10.7293 17.8125 11.0152 17.802 11.9159 17.7619C12.8134 17.7197 13.4283 17.5784 13.9651 17.3695C14.5279 17.1576 15.0375 16.8254 15.4586 16.3961C15.9279 15.9267 16.2158 15.4563 16.432 14.9016C16.6398 14.3647 16.7822 13.752 16.8244 12.8534C16.8645 11.9537 16.875 11.6668 16.875 9.375C16.875 7.08316 16.8645 6.79629 16.8244 5.89559C16.7822 4.99805 16.6398 4.38422 16.432 3.84844C16.22 3.28547 15.8878 2.77548 15.4586 2.35395C15.0373 1.92435 14.5273 1.59209 13.9641 1.38047C13.4262 1.17164 12.8123 1.02926 11.9148 0.988125C11.0141 0.948047 10.7283 0.9375 8.43539 0.9375H8.43856H8.4375ZM7.68129 2.45836H8.43856C10.6914 2.45836 10.9582 2.46574 11.8473 2.50688C12.67 2.54379 13.1171 2.68195 13.4146 2.79691C13.808 2.94984 14.0896 3.13336 14.3849 3.42867C14.6802 3.72398 14.8627 4.00453 15.0156 4.39898C15.1316 4.69535 15.2687 5.14254 15.3056 5.9652C15.3468 6.8543 15.3552 7.12113 15.3552 9.37289C15.3552 11.6246 15.3468 11.8925 15.3056 12.7816C15.2687 13.6043 15.1305 14.0504 15.0156 14.3479C14.8803 14.7142 14.6644 15.0455 14.3838 15.3171C14.0885 15.6124 13.808 15.7949 13.4135 15.9478C13.1182 16.0638 12.671 16.2009 11.8473 16.2389C10.9582 16.279 10.6914 16.2885 8.43856 16.2885C6.18574 16.2885 5.91785 16.279 5.02875 16.2389C4.20609 16.2009 3.75996 16.0638 3.46254 15.9478C3.09603 15.8127 2.76447 15.5972 2.49223 15.3171C2.21142 15.045 1.99518 14.7135 1.85941 14.3468C1.74445 14.0504 1.60629 13.6032 1.56938 12.7806C1.5293 11.8915 1.52086 11.6246 1.52086 9.37078C1.52086 7.11797 1.5293 6.85219 1.56938 5.96309C1.60734 5.14043 1.74445 4.69324 1.86047 4.39582C2.0134 4.00242 2.19691 3.72082 2.49223 3.42551C2.78754 3.1302 3.06809 2.94773 3.46254 2.7948C3.75996 2.67879 4.20609 2.54168 5.02875 2.50371C5.80711 2.46785 6.10875 2.4573 7.68129 2.45625V2.45836ZM12.9421 3.85898C12.8091 3.85898 12.6774 3.88517 12.5546 3.93606C12.4318 3.98694 12.3201 4.06152 12.2261 4.15554C12.1321 4.24956 12.0575 4.36118 12.0066 4.48402C11.9558 4.60686 11.9296 4.73852 11.9296 4.87148C11.9296 5.00445 11.9558 5.13611 12.0066 5.25895C12.0575 5.38179 12.1321 5.49341 12.2261 5.58743C12.3201 5.68145 12.4318 5.75603 12.5546 5.80691C12.6774 5.8578 12.8091 5.88398 12.9421 5.88398C13.2106 5.88398 13.4681 5.77731 13.658 5.58743C13.8479 5.39755 13.9546 5.14002 13.9546 4.87148C13.9546 4.60295 13.8479 4.34542 13.658 4.15554C13.4681 3.96566 13.2106 3.85898 12.9421 3.85898ZM8.43856 5.04234C7.86382 5.03338 7.29305 5.13883 6.75947 5.35257C6.22589 5.56631 5.74015 5.88406 5.33055 6.28732C4.92095 6.69058 4.59566 7.1713 4.37362 7.70149C4.15159 8.23167 4.03724 8.80073 4.03724 9.37553C4.03724 9.95033 4.15159 10.5194 4.37362 11.0496C4.59566 11.5798 4.92095 12.0605 5.33055 12.4637C5.74015 12.867 6.22589 13.1847 6.75947 13.3985C7.29305 13.6122 7.86382 13.7177 8.43856 13.7087C9.57608 13.691 10.661 13.2266 11.4592 12.4159C12.2573 11.6052 12.7047 10.5132 12.7047 9.37553C12.7047 8.23786 12.2573 7.14583 11.4592 6.33513C10.661 5.52443 9.57608 5.06009 8.43856 5.04234ZM8.43856 6.56215C9.18457 6.56215 9.90003 6.8585 10.4275 7.38601C10.9551 7.91353 11.2514 8.62899 11.2514 9.375C11.2514 10.121 10.9551 10.8365 10.4275 11.364C9.90003 11.8915 9.18457 12.1879 8.43856 12.1879C7.69254 12.1879 6.97708 11.8915 6.44957 11.364C5.92206 10.8365 5.6257 10.121 5.6257 9.375C5.6257 8.62899 5.92206 7.91353 6.44957 7.38601C6.97708 6.8585 7.69254 6.56215 8.43856 6.56215Z" fill="white"/>
</g>
<defs>
<clipPath id="clip0_47_461">
<rect width="16.875" height="16.875" fill="white" transform="translate(0 0.9375)"/>
</clipPath>
</defs>
</svg>
