<svg width="24" height="24" viewBox="0 0 24 24" fill="none" xmlns="http://www.w3.org/2000/svg">
<g clip-path="url(#clip0_47_472)">
<path d="M17.5938 3.70312C18.3604 3.70313 19.0956 4.00767 19.6377 4.54977C20.1798 5.09187 20.4844 5.82711 20.4844 6.59375V18.1563C20.4844 18.9229 20.1798 19.6581 19.6377 20.2002C19.0956 20.7423 18.3604 21.0469 17.5938 21.0469H6.03125C5.26461 21.0469 4.52937 20.7423 3.98727 20.2002C3.44517 19.6581 3.14063 18.9229 3.14062 18.1563V6.59375C3.14063 5.82711 3.44517 5.09187 3.98727 4.54977C4.52937 4.00767 5.26461 3.70313 6.03125 3.70312H17.5938ZM17.5938 5.63021H6.03125C5.7757 5.63021 5.53062 5.73172 5.34992 5.91242C5.16922 6.09312 5.06771 6.3382 5.06771 6.59375V18.1563C5.06771 18.4118 5.16922 18.6569 5.34992 18.8376C5.53062 19.0183 5.7757 19.1198 6.03125 19.1198H17.5938C17.8493 19.1198 18.0944 19.0183 18.2751 18.8376C18.4558 18.6569 18.5573 18.4118 18.5573 18.1563V6.59375C18.5573 6.3382 18.4558 6.09312 18.2751 5.91242C18.0944 5.73172 17.8493 5.63021 17.5938 5.63021ZM7.95833 10.4479C8.19434 10.4479 8.42212 10.5346 8.59848 10.6914C8.77485 10.8482 8.88752 11.0643 8.91513 11.2987L8.92188 11.4115V16.2292C8.9216 16.4748 8.82756 16.711 8.65897 16.8895C8.49038 17.0681 8.25997 17.1756 8.0148 17.19C7.76964 17.2044 7.52823 17.1246 7.3399 16.967C7.15157 16.8094 7.03054 16.5858 7.00154 16.3419L6.99479 16.2292V11.4115C6.99479 11.1559 7.09631 10.9108 7.27701 10.7301C7.45771 10.5494 7.70279 10.4479 7.95833 10.4479ZM10.849 9.48438C11.0746 9.48434 11.2931 9.56351 11.4664 9.70807C11.6397 9.85264 11.7567 10.0534 11.7971 10.2754C11.991 10.163 12.1914 10.0623 12.3974 9.97385C13.0401 9.69925 14.0026 9.54797 14.8717 9.82065C15.3275 9.96518 15.7852 10.235 16.1243 10.6946C16.4279 11.1041 16.5917 11.6022 16.6244 12.1621L16.6302 12.375V16.2292C16.6299 16.4748 16.5359 16.711 16.3673 16.8895C16.1987 17.0681 15.9683 17.1756 15.7231 17.19C15.478 17.2044 15.2366 17.1246 15.0482 16.967C14.8599 16.8094 14.7389 16.5858 14.7099 16.3419L14.7031 16.2292V12.375C14.7031 12.057 14.626 11.9086 14.5759 11.8402C14.504 11.7508 14.4049 11.6872 14.2936 11.6591C13.9583 11.5531 13.4756 11.609 13.1547 11.7458C12.6729 11.952 12.2316 12.2758 11.931 12.5754L11.8125 12.7026V16.2292C11.8122 16.4748 11.7182 16.711 11.5496 16.8895C11.381 17.0681 11.1506 17.1756 10.9054 17.19C10.6603 17.2044 10.4189 17.1246 10.2305 16.967C10.0422 16.8094 9.92117 16.5858 9.89216 16.3419L9.88542 16.2292V10.4479C9.88542 10.1924 9.98693 9.94729 10.1676 9.76659C10.3483 9.58589 10.5934 9.48438 10.849 9.48438ZM7.95833 7.55729C8.21388 7.55729 8.45896 7.65881 8.63966 7.83951C8.82036 8.02021 8.92188 8.26529 8.92188 8.52083C8.92188 8.77638 8.82036 9.02146 8.63966 9.20216C8.45896 9.38286 8.21388 9.48438 7.95833 9.48438C7.70279 9.48438 7.45771 9.38286 7.27701 9.20216C7.09631 9.02146 6.99479 8.77638 6.99479 8.52083C6.99479 8.26529 7.09631 8.02021 7.27701 7.83951C7.45771 7.65881 7.70279 7.55729 7.95833 7.55729Z" fill="white"/>
</g>
<defs>
<clipPath id="clip0_47_472">
<rect width="23.125" height="23.125" fill="white" transform="translate(0.25 0.8125)"/>
</clipPath>
</defs>
</svg>
