<svg width="34" height="34" viewBox="0 0 34 34" fill="none" xmlns="http://www.w3.org/2000/svg">
<path d="M12.5442 11.8498C12.5277 11.6604 12.5871 11.4723 12.7093 11.3267C12.8315 11.1811 13.0064 11.0899 13.1958 11.0733L21.6161 10.3366C21.8054 10.3201 21.9936 10.3795 22.1392 10.5017C22.2848 10.6238 22.3759 10.7988 22.3926 10.9881L23.1293 19.4085C23.1452 19.5363 23.1264 19.6661 23.0748 19.7841C23.0232 19.9022 22.9408 20.0041 22.8361 20.0792C22.7314 20.1543 22.6084 20.1998 22.48 20.2109C22.3517 20.2219 22.2227 20.1982 22.1067 20.1421C21.9907 20.0864 21.8918 20.0005 21.8204 19.8934C21.749 19.7863 21.7079 19.6619 21.7012 19.5334L21.1154 12.8376L12.2392 23.4157C12.117 23.5614 11.9418 23.6526 11.7523 23.6692C11.5628 23.6858 11.3745 23.6264 11.2288 23.5041C11.0831 23.3819 10.9919 23.2067 10.9753 23.0172C10.9588 22.8277 11.0181 22.6394 11.1404 22.4937L20.0165 11.9155L13.3207 12.5013C13.1313 12.5178 12.9432 12.4584 12.7976 12.3362C12.652 12.2141 12.5609 12.0391 12.5442 11.8498Z" fill="black"/>
</svg>
